<?xml version="1.0" encoding="UTF-8"?>
<!-- Generator: Adobe Illustrator 16.0.3, SVG Export Plug-In . SVG Version: 6.00 Build 0)  -->
<!DOCTYPE svg PUBLIC "-//W3C//DTD SVG 1.1//EN" "http://www.w3.org/Graphics/SVG/1.1/DTD/svg11.dtd">
<svg version="1.1" id="Layer_1" xmlns="http://www.w3.org/2000/svg" xmlns:xlink="http://www.w3.org/1999/xlink" x="0px" y="0px" width="280.875px" height="271.143px" viewBox="0 0 280.875 271.143" enable-background="new 0 0 280.875 271.143" xml:space="preserve">
<g id="Hintergrund">
</g>
<g id="Hilfslinien_anzeigen">
</g>
<g id="Vordergrund">
	<path fill="#8E969C" d="M154.566,83.202c-3.17,3.033-4.479,5.527-4.159,9.498c0.862,10.753,26.919,19.564,34.179,30.472   c1.42-1.033,4.493-2.424,4.463-4.349c-0.115-7.514-25.697-10.34-24.977-27.45c0.402-9.567,9.367-18.433,17.324-24.979   c0.201-0.165-5.513,10.79-1.361,19.408c4.082,8.478,13.343,10.832,18.21,15.855c5.426,5.601,3.555,12.033,1.884,15.854   c-2.197,5.022-8.286,9.5-13.732,11.48c0,0,0.188,2.104-0.156,4.112c-0.801,4.662-5.854,9.045-4.231,15.909   c0.399,3.11,2.406,5.936,5.819,8.407c2.156,1.563,6.298,5.998,3.865,11.179c-1.235,2.629-16.875,27.001-21.428,31.866   c-1.41,1.358-7.447,2.478-9.891,3.769c-1.706,0.898-2.218,3.725-4.127,4.044c-1.137,0.19-9.13,0.762-11.328,0.683   c-0.626,0.004-0.699-0.505-0.619-1.01c0.249-1.571,7.18-7.84,9.167-8.584c2.341-1.022,5.584-1.983,8.007-3.14   c4.736-2.263,8.988-9.735,10.518-12.559c1.455-2.547,3.895-6.412,4.007-11.137c0.085-3.587-2.799-7.274-8.658-11.265   c0.171,10.091-13.323,12.826-18.19,13.218c-3.143,0.254-10.909,0.785-14.049,1.256c-2.208,0.331-4.709,1.021-6.279,1.805   c-1.847,0.924-3.015,4.136-3.433,4.81c-0.806,1.078-6.969,1.845-8.655,2.02c0,0-2.631,0.196-2.85,0.131   c-0.168-0.05-0.442-0.036-0.442-0.498c0-1.981,7.06-11.25,9.643-12.762c3.455-2.021,6.852-2.605,10.53-3.326   c5.499-1.074,11.112-1.729,16.597-2.881c2.044-0.473,3.075-2.001,2.877-3.437c-0.485-3.522-22.462-12.313-21.521-22.281   c0.232-2.458,2.022-5.863,3.933-9.36c-8.39-5.08-18.228-11.236-22.973-14.536c0,0-2.532-1.922-4.743-1.377   c-2.259,0.854-1.968,3.954-1.57,7.064c0.785,6.123,6.319,13.971,8.103,15.287c0.3,0.185,2.458,8.798,2.744,9.75   c0.377,1.257,0.024,1.454,0.024,1.454c-0.509,0.437-2.137-0.264-3.947-1.078c-8.323-3.749-11.791-10.971-13.596-19.762   c-1.276-5.902-2.136-14.143-1.408-17.992c0.46-2.437,5.588-7.347,5.588-7.347s-4.358-2.333-7.463-5.296   c-3.509-3.35-7.944-10.5-12.047-10.5c-1.959,0-3.271,1.812-3.227,3.966c0.058,2.796,0.917,4.74,1.839,7.068   c0.53,1.337,4.317,8.124,7.336,9.679c0.541,1.005,2.126,6.986,2.122,8.924c0,0,0.039,0.791-0.04,0.98   c-0.078,0.19-0.102,0.363-0.563,0.363c-2.559,0-10.359-4.539-11.558-6.499c-1.43-2.352-6.264-18.388-5.932-26.987   c0.107-2.777,4.277-13.107,7.993-11.877c6.308,2.089,18.958,9.939,22.289,13.658c7.54-9.42,18.022-16.268,27.816-23.184   c1.038-0.738,2.467-1.32,2.174-1.354c-2.771-0.322-8.736-3.688-11.249-3.688c-0.461,0-5.063,2.011-7.975,1.793   c-1.814-0.137-4.798-2.631-5.26-3.182c2.494-0.895,6.042-1.608,6.042-4.329c0-3.25-2.978-4.038-4.422-3.845   c-1.233,0.165-2.838,0.874-3.639,1.02c-0.657,0.119-0.975-1.208-0.975-1.601c0-1.774,0.028-3.171,2.08-4.186   c6.73-3.365,14.141-5.076,21.033-7.496c2.674-0.922,5.906-2.071,6.825-2.717c2.65-1.866,0.495-7.796,0.495-7.796   s4.453,1.601,7.136,4.819c1.2-0.353,1.746-0.381,3.022-2.772c10.528,1.914,18.71,18.937,17.915,32.369   C164.457,76.295,158.178,79.749,154.566,83.202z M173.102,232.132c13.791-1.586,23.348-7.834,34.625-15.196   c10.416-8.395,19.523-15.683,25.332-28.39c8.008-17.521,2.428-26.521-9.688-37.936c16.575-1.985,26.487-5.896,30.325-24.861   c2.754-13.608-0.236-24.625-3.754-37.627c-4.803-12.604-8.935-23.463-19.17-32.864c-14.191-13.03-24.475-10.504-39.074-2.507   c3.236-16.378,2.582-27.013-14.271-36.523c-12.092-6.825-23.491-7.386-36.946-8.06c-13.471,0.674-25.075,1.247-37.179,8.078   c-16.779,9.47-17.553,20.032-14.459,36.386C74.265,44.494,63.95,41.83,49.695,54.918c-10.226,9.391-14.283,20.061-19.082,32.647   c-3.522,13.019-6.563,24.232-3.807,37.854c3.82,18.882,13.625,22.885,30.136,24.997c-12.243,11.35-17.964,20.338-9.921,37.938   c5.803,12.697,14.758,19.857,25.153,28.235c11.295,7.374,21.021,13.73,34.827,15.318c19.141,2.202,25.975-5.889,33.084-20.938   C147.096,226.124,153.876,234.342,173.102,232.132z M222.164,39.422l-0.223,0.679c11.982,4.688,21.932,15.696,27.734,26.631   c3.137,5.909,5.527,12.319,8.024,18.87c3.952,14.625,7.095,26.426,3.989,41.766c-1.273,6.296-3.564,11.793-6.635,16.322   c10.844,7.829,20.946,19.523,25.819,25.669c0,0-9.026,2.518-14.729,3.605c-5.715,1.092-13.235,2.178-20.459,2.188l-0.697-0.003   c-0.756,16.083-12.698,31.833-24.459,41.843c-2.526,2.152-5.318,4.374-8.008,6.542c-12.688,8.278-22.939,14.913-38.49,16.701   c-6.334,0.729-12.229,0.26-17.456-1.233c-4.128,12.625-12.023,25.667-16.321,32.14c0,0-5.185-7.809-7.981-12.895   c-2.804-5.098-6.161-11.916-8.404-18.781l-0.208-0.648c-12.583,3.514-27.397,0.445-38.7-5.079   c-6.01-2.938-11.713-6.718-17.583-10.549c-11.655-9.396-21.237-17.131-27.778-31.444c-2.668-5.838-4.045-11.628-4.226-17.093   h-0.189C23.22,174.634,11.463,172.056,0,168.858c0,0,5.823-7.343,9.796-11.575c3.926-4.182,9.364-9.494,15.265-13.796l0.257-0.188   c-7.174-10.874-8.817-25.855-7.062-38.273c0.937-6.624,2.77-13.215,4.6-19.982c5.398-14.154,9.793-25.548,21.322-36.135   c4.877-4.479,10.132-7.635,15.439-9.474c-4.078-12.638-5.354-27.82-5.682-35.579c0,0,8.784,3.269,14.036,5.74   c5.19,2.44,11.922,5.972,17.838,10.255l0.272,0.197c8.154-10.002,21.744-16.093,33.974-18.238C126.783,0.63,133.678,0.341,140.48,0   c15.068,0.755,27.391,1.466,40.956,9.123c5.727,3.231,10.328,7.219,13.709,11.661c10.795-7.89,25.033-13.881,32.383-16.617   c0,0-0.396,9.363-1.123,15.122C225.678,25.061,224.385,32.549,222.164,39.422z M219.811,14.786   c-5.602,2.459-14.287,6.706-21.033,11.862c1.902,3.89,2.968,7.997,3.146,12.158c4.53-1.206,8.955-1.33,13.196-0.612   C217.877,30.237,219.209,20.807,219.811,14.786z M150.167,236.494c-4.024-2.055-7.463-4.836-10.158-8.229   c-2.81,3.458-6.117,6.069-9.746,7.962c2.439,8.085,6.927,16.543,9.992,21.788C143.287,252.828,147.71,244.498,150.167,236.494z    M35.837,167.581c0.733-4.345,2.298-8.365,4.636-11.893c-4.2-1.621-7.736-3.991-10.675-6.898   c-6.82,4.807-13.335,11.546-17.314,16.013C18.313,166.073,27.512,167.691,35.837,167.581z M66.317,37.816   c4.249-0.586,8.445-0.326,12.421,0.78c0.251-4.64,1.48-8.853,3.441-12.638c-6.67-4.983-15.065-9.083-20.529-11.48   C62.25,20.481,63.577,29.875,66.317,37.816z M250.665,149.001c-3.177,3.148-6.853,5.526-10.873,7.026   c2.541,3.927,4.069,7.971,4.772,12.044c8.447,0.181,17.887-1.475,23.826-2.771C264.332,160.746,257.633,153.822,250.665,149.001z"/>
</g>
</svg>